<svg xmlns="http://www.w3.org/2000/svg" width="11" height="14" fill="none"><g clip-path="url(#a)"><rect width="10.749" height="13.889" fill="transparent" rx="2.212"/><path fill="#E47320" fill-opacity=".6" d="M3.81 17.082 18.7 2.192l.792.792-14.89 14.89z"/><path fill="#E47320" d="M3.81 15.516 18.7.626l.792.791-14.89 14.89z" opacity=".5"/><path fill="#E47320" d="M2.24 15.516 17.13.626l.792.791-14.89 14.89z" opacity=".4"/><path fill="#E47320" d="M.673 15.516 15.563.626l.792.791-14.89 14.89z" opacity=".35"/><path fill="#E47320" d="m.225 14.395 14.89-14.89.792.791-14.89 14.89z" opacity=".3"/><path fill="#E47320" d="m.001 13.05 14.89-14.89.792.793-14.89 14.89z" opacity=".25"/><path fill="#E47320" d="m-.672 12.156 14.89-14.89.792.792L.12 12.948z" opacity=".2"/><path fill="#E47320" d="m-2.24 12.156 14.891-14.89.792.792-14.89 14.89z" opacity=".15"/><path fill="#E47320" d="m-3.809 12.156 14.89-14.89.793.792-14.89 14.89z" opacity=".1"/></g><rect width="10.041" height="13.181" x=".354" y=".354" stroke="url(#b)" stroke-width=".708" rx="1.858"/><defs><linearGradient id="b" x1="5.374" x2="5.374" y1="0" y2="13.889" gradientUnits="userSpaceOnUse"><stop stop-color="#FF9B51"/><stop offset="1" stop-color="#FF6C02"/></linearGradient><clipPath id="a"><rect width="10.749" height="13.889" fill="#fff" rx="2.212"/></clipPath></defs></svg>